<?xml version="1.0" encoding="UTF-8" standalone="no"?>
<!DOCTYPE svg PUBLIC "-//W3C//DTD SVG 1.1//EN"
 "http://www.w3.org/Graphics/SVG/1.1/DTD/svg11.dtd">
<!-- Generated by graphviz version 12.2.1 (0)
 -->
<!-- Pages: 1 -->
<svg width="778pt" height="405pt"
 viewBox="0.00 0.00 778.00 405.45" xmlns="http://www.w3.org/2000/svg" xmlns:xlink="http://www.w3.org/1999/xlink">
<g id="graph0" class="graph" transform="scale(1 1) rotate(0) translate(4 401.45)">
<polygon fill="white" stroke="none" points="-4,4 -4,-401.45 774,-401.45 774,4 -4,4"/>
<g id="clust1" class="cluster">
<title>cluster36</title>
<path fill="none" stroke="black" d="M146,-267.63C146,-267.63 306,-267.63 306,-267.63 312,-267.63 318,-273.63 318,-279.63 318,-279.63 318,-377.45 318,-377.45 318,-383.45 312,-389.45 306,-389.45 306,-389.45 146,-389.45 146,-389.45 140,-389.45 134,-383.45 134,-377.45 134,-377.45 134,-279.63 134,-279.63 134,-273.63 140,-267.63 146,-267.63"/>
<text text-anchor="middle" x="303.25" y="-274.83" font-family="Times New Roman,serif" font-size="14.00">36</text>
</g>
<g id="clust2" class="cluster">
<title>cluster8 x 8</title>
<path fill="none" stroke="black" d="M20,-149.73C20,-149.73 210,-149.73 210,-149.73 216,-149.73 222,-155.73 222,-161.73 222,-161.73 222,-235.73 222,-235.73 222,-241.73 216,-247.73 210,-247.73 210,-247.73 20,-247.73 20,-247.73 14,-247.73 8,-241.73 8,-235.73 8,-235.73 8,-161.73 8,-161.73 8,-155.73 14,-149.73 20,-149.73"/>
<text text-anchor="middle" x="200.12" y="-156.93" font-family="Times New Roman,serif" font-size="14.00">8 x 8</text>
</g>
<g id="clust3" class="cluster">
<title>cluster8</title>
<path fill="none" stroke="black" d="M242,-137.82C242,-137.82 424,-137.82 424,-137.82 430,-137.82 436,-143.82 436,-149.82 436,-149.82 436,-247.63 436,-247.63 436,-253.63 430,-259.63 424,-259.63 424,-259.63 242,-259.63 242,-259.63 236,-259.63 230,-253.63 230,-247.63 230,-247.63 230,-149.82 230,-149.82 230,-143.82 236,-137.82 242,-137.82"/>
<text text-anchor="middle" x="424.62" y="-145.02" font-family="Times New Roman,serif" font-size="14.00">8</text>
</g>
<g id="clust4" class="cluster">
<title>cluster8 x 16</title>
<path fill="none" stroke="black" d="M488,-137.82C488,-137.82 562,-137.82 562,-137.82 568,-137.82 574,-143.82 574,-149.82 574,-149.82 574,-247.63 574,-247.63 574,-253.63 568,-259.63 562,-259.63 562,-259.63 488,-259.63 488,-259.63 482,-259.63 476,-253.63 476,-247.63 476,-247.63 476,-149.82 476,-149.82 476,-143.82 482,-137.82 488,-137.82"/>
<text text-anchor="middle" x="548.75" y="-145.02" font-family="Times New Roman,serif" font-size="14.00">8 x 16</text>
</g>
<g id="clust5" class="cluster">
<title>cluster82 x 1</title>
<path fill="none" stroke="black" d="M594,-149.73C594,-149.73 640,-149.73 640,-149.73 646,-149.73 652,-155.73 652,-161.73 652,-161.73 652,-235.73 652,-235.73 652,-241.73 646,-247.73 640,-247.73 640,-247.73 594,-247.73 594,-247.73 588,-247.73 582,-241.73 582,-235.73 582,-235.73 582,-161.73 582,-161.73 582,-155.73 588,-149.73 594,-149.73"/>
<text text-anchor="middle" x="626.75" y="-156.93" font-family="Times New Roman,serif" font-size="14.00">82 x 1</text>
</g>
<g id="clust6" class="cluster">
<title>cluster8 x 1</title>
<path fill="none" stroke="black" d="M672,-137.82C672,-137.82 750,-137.82 750,-137.82 756,-137.82 762,-143.82 762,-149.82 762,-149.82 762,-247.63 762,-247.63 762,-253.63 756,-259.63 750,-259.63 750,-259.63 672,-259.63 672,-259.63 666,-259.63 660,-253.63 660,-247.63 660,-247.63 660,-149.82 660,-149.82 660,-143.82 666,-137.82 672,-137.82"/>
<text text-anchor="middle" x="740.12" y="-145.02" font-family="Times New Roman,serif" font-size="14.00">8 x 1</text>
</g>
<g id="clust7" class="cluster">
<title>cluster82 x 8</title>
<path fill="none" stroke="black" d="M438,-8C438,-8 612,-8 612,-8 618,-8 624,-14 624,-20 624,-20 624,-117.82 624,-117.82 624,-123.82 618,-129.82 612,-129.82 612,-129.82 438,-129.82 438,-129.82 432,-129.82 426,-123.82 426,-117.82 426,-117.82 426,-20 426,-20 426,-14 432,-8 438,-8"/>
<text text-anchor="middle" x="598.75" y="-15.2" font-family="Times New Roman,serif" font-size="14.00">82 x 8</text>
</g>
<!-- chol -->
<g id="node1" class="node">
<title>chol</title>
<ellipse fill="none" stroke="black" cx="226" cy="-340.79" rx="84.5" ry="40.66"/>
<text text-anchor="middle" x="226" y="-352.24" font-family="Times New Roman,serif" font-size="14.00">chol</text>
<text text-anchor="middle" x="226" y="-335.74" font-family="Times New Roman,serif" font-size="14.00">~</text>
<text text-anchor="middle" x="226" y="-319.24" font-family="Times New Roman,serif" font-size="14.00">_LKJCholeskyCov</text>
</g>
<!-- Sigma -->
<g id="node2" class="node">
<title>Sigma</title>
<polygon fill="none" stroke="black" points="106.12,-239.73 15.88,-239.73 15.88,-182.23 106.12,-182.23 106.12,-239.73"/>
<text text-anchor="middle" x="61" y="-222.43" font-family="Times New Roman,serif" font-size="14.00">Sigma</text>
<text text-anchor="middle" x="61" y="-205.93" font-family="Times New Roman,serif" font-size="14.00">~</text>
<text text-anchor="middle" x="61" y="-189.43" font-family="Times New Roman,serif" font-size="14.00">Deterministic</text>
</g>
<!-- chol&#45;&gt;Sigma -->
<g id="edge3" class="edge">
<title>chol&#45;&gt;Sigma</title>
<path fill="none" stroke="black" d="M178.25,-306.86C158.37,-292.74 135.24,-275.81 115,-259.63 110.18,-255.78 105.21,-251.64 100.32,-247.47"/>
<polygon fill="black" stroke="black" points="102.67,-244.87 92.82,-240.97 98.09,-250.16 102.67,-244.87"/>
</g>
<!-- chol_corr -->
<g id="node3" class="node">
<title>chol_corr</title>
<polygon fill="none" stroke="black" points="214.12,-239.73 123.88,-239.73 123.88,-182.23 214.12,-182.23 214.12,-239.73"/>
<text text-anchor="middle" x="169" y="-222.43" font-family="Times New Roman,serif" font-size="14.00">chol_corr</text>
<text text-anchor="middle" x="169" y="-205.93" font-family="Times New Roman,serif" font-size="14.00">~</text>
<text text-anchor="middle" x="169" y="-189.43" font-family="Times New Roman,serif" font-size="14.00">Deterministic</text>
</g>
<!-- chol&#45;&gt;chol_corr -->
<g id="edge1" class="edge">
<title>chol&#45;&gt;chol_corr</title>
<path fill="none" stroke="black" d="M208.59,-300.75C201.39,-284.61 193.08,-265.96 185.93,-249.94"/>
<polygon fill="black" stroke="black" points="189.31,-248.93 182.04,-241.22 182.92,-251.78 189.31,-248.93"/>
</g>
<!-- chol_stds -->
<g id="node4" class="node">
<title>chol_stds</title>
<polygon fill="none" stroke="black" points="328.12,-239.73 237.88,-239.73 237.88,-182.23 328.12,-182.23 328.12,-239.73"/>
<text text-anchor="middle" x="283" y="-222.43" font-family="Times New Roman,serif" font-size="14.00">chol_stds</text>
<text text-anchor="middle" x="283" y="-205.93" font-family="Times New Roman,serif" font-size="14.00">~</text>
<text text-anchor="middle" x="283" y="-189.43" font-family="Times New Roman,serif" font-size="14.00">Deterministic</text>
</g>
<!-- chol&#45;&gt;chol_stds -->
<g id="edge2" class="edge">
<title>chol&#45;&gt;chol_stds</title>
<path fill="none" stroke="black" d="M243.41,-300.75C250.61,-284.61 258.92,-265.96 266.07,-249.94"/>
<polygon fill="black" stroke="black" points="269.08,-251.78 269.96,-241.22 262.69,-248.93 269.08,-251.78"/>
</g>
<!-- y -->
<g id="node10" class="node">
<title>y</title>
<ellipse fill="lightgrey" stroke="black" cx="525" cy="-81.16" rx="91.39" ry="40.66"/>
<text text-anchor="middle" x="525" y="-92.61" font-family="Times New Roman,serif" font-size="14.00">y</text>
<text text-anchor="middle" x="525" y="-76.11" font-family="Times New Roman,serif" font-size="14.00">~</text>
<text text-anchor="middle" x="525" y="-59.61" font-family="Times New Roman,serif" font-size="14.00">Multivariate_normal</text>
</g>
<!-- chol&#45;&gt;y -->
<g id="edge9" class="edge">
<title>chol&#45;&gt;y</title>
<path fill="none" stroke="black" d="M306.68,-328.16C351.83,-317.59 405.76,-297.54 440,-259.63 477.52,-218.1 444.73,-186.7 472,-137.82 474.04,-134.17 476.37,-130.57 478.9,-127.08"/>
<polygon fill="black" stroke="black" points="481.6,-129.31 485.03,-119.29 476.09,-124.98 481.6,-129.31"/>
</g>
<!-- c -->
<g id="node5" class="node">
<title>c</title>
<ellipse fill="none" stroke="black" cx="387" cy="-210.98" rx="41.01" ry="40.66"/>
<text text-anchor="middle" x="387" y="-222.43" font-family="Times New Roman,serif" font-size="14.00">c</text>
<text text-anchor="middle" x="387" y="-205.93" font-family="Times New Roman,serif" font-size="14.00">~</text>
<text text-anchor="middle" x="387" y="-189.43" font-family="Times New Roman,serif" font-size="14.00">Normal</text>
</g>
<!-- c&#45;&gt;y -->
<g id="edge6" class="edge">
<title>c&#45;&gt;y</title>
<path fill="none" stroke="black" d="M409,-176.47C418.32,-163.6 429.84,-149.26 442,-137.82 448.22,-131.96 455.11,-126.31 462.2,-120.98"/>
<polygon fill="black" stroke="black" points="463.97,-124.02 470,-115.32 459.85,-118.35 463.97,-124.02"/>
</g>
<!-- B -->
<g id="node6" class="node">
<title>B</title>
<ellipse fill="none" stroke="black" cx="525" cy="-210.98" rx="41.01" ry="40.66"/>
<text text-anchor="middle" x="525" y="-222.43" font-family="Times New Roman,serif" font-size="14.00">B</text>
<text text-anchor="middle" x="525" y="-205.93" font-family="Times New Roman,serif" font-size="14.00">~</text>
<text text-anchor="middle" x="525" y="-189.43" font-family="Times New Roman,serif" font-size="14.00">Normal</text>
</g>
<!-- B&#45;&gt;y -->
<g id="edge5" class="edge">
<title>B&#45;&gt;y</title>
<path fill="none" stroke="black" d="M525,-169.88C525,-158.34 525,-145.6 525,-133.48"/>
<polygon fill="black" stroke="black" points="528.5,-133.62 525,-123.62 521.5,-133.62 528.5,-133.62"/>
</g>
<!-- Z -->
<g id="node7" class="node">
<title>Z</title>
<path fill="lightgrey" stroke="black" d="M632,-239.73C632,-239.73 602,-239.73 602,-239.73 596,-239.73 590,-233.73 590,-227.73 590,-227.73 590,-194.23 590,-194.23 590,-188.23 596,-182.23 602,-182.23 602,-182.23 632,-182.23 632,-182.23 638,-182.23 644,-188.23 644,-194.23 644,-194.23 644,-227.73 644,-227.73 644,-233.73 638,-239.73 632,-239.73"/>
<text text-anchor="middle" x="617" y="-222.43" font-family="Times New Roman,serif" font-size="14.00">Z</text>
<text text-anchor="middle" x="617" y="-205.93" font-family="Times New Roman,serif" font-size="14.00">~</text>
<text text-anchor="middle" x="617" y="-189.43" font-family="Times New Roman,serif" font-size="14.00">Data</text>
</g>
<!-- Z&#45;&gt;y -->
<g id="edge8" class="edge">
<title>Z&#45;&gt;y</title>
<path fill="none" stroke="black" d="M604,-181.88C597.09,-168.08 587.96,-151.53 578,-137.82 575.43,-134.27 572.64,-130.73 569.74,-127.23"/>
<polygon fill="black" stroke="black" points="572.53,-125.11 563.35,-119.83 567.24,-129.69 572.53,-125.11"/>
</g>
<!-- tau_D -->
<g id="node8" class="node">
<title>tau_D</title>
<ellipse fill="none" stroke="black" cx="711" cy="-340.79" rx="55.86" ry="40.66"/>
<text text-anchor="middle" x="711" y="-352.24" font-family="Times New Roman,serif" font-size="14.00">tau_D</text>
<text text-anchor="middle" x="711" y="-335.74" font-family="Times New Roman,serif" font-size="14.00">~</text>
<text text-anchor="middle" x="711" y="-319.24" font-family="Times New Roman,serif" font-size="14.00">Halfnormal</text>
</g>
<!-- Gamma -->
<g id="node9" class="node">
<title>Gamma</title>
<ellipse fill="none" stroke="black" cx="711" cy="-210.98" rx="42.6" ry="40.66"/>
<text text-anchor="middle" x="711" y="-222.43" font-family="Times New Roman,serif" font-size="14.00">Gamma</text>
<text text-anchor="middle" x="711" y="-205.93" font-family="Times New Roman,serif" font-size="14.00">~</text>
<text text-anchor="middle" x="711" y="-189.43" font-family="Times New Roman,serif" font-size="14.00">Normal</text>
</g>
<!-- tau_D&#45;&gt;Gamma -->
<g id="edge4" class="edge">
<title>tau_D&#45;&gt;Gamma</title>
<path fill="none" stroke="black" d="M711,-299.7C711,-288.16 711,-275.41 711,-263.29"/>
<polygon fill="black" stroke="black" points="714.5,-263.44 711,-253.44 707.5,-263.44 714.5,-263.44"/>
</g>
<!-- Gamma&#45;&gt;y -->
<g id="edge7" class="edge">
<title>Gamma&#45;&gt;y</title>
<path fill="none" stroke="black" d="M690.06,-175.24C680.88,-162.2 669.18,-148.06 656,-137.82 641.94,-126.89 625.42,-117.71 608.94,-110.15"/>
<polygon fill="black" stroke="black" points="610.65,-107.08 600.09,-106.26 607.83,-113.49 610.65,-107.08"/>
</g>
</g>
</svg>
